<svg xmlns="http://www.w3.org/2000/svg" xmlns:xlink="http://www.w3.org/1999/xlink" width="1153" height="211" viewBox="0 0 1153 211">
  <defs>
    <clipPath id="clip-word-programme">
      <rect width="1153" height="211"/>
    </clipPath>
  </defs>
  <g id="word-programm"  clip-path="url(#clip-word-programm)">
            <path
                fill="rgba(37,36,40,0.05)"
                d="M1137.01,122.04c-8.59,0-20.11,13.11-36.84,13.11-15.14,0-28.48-7.46-30.74-23.5h69.38c9.94,0,14.24-4.75,14.24-14.47,0-27.12-23.28-59.21-58.53-59.21s-58.31,30.06-58.31,63.05c0,35.93,24.41,62.6,61.02,62.6,24.18,0,53.11-13.56,53.11-27.57,0-7.01-6.33-14.01-13.33-14.01Zm-42.49-56.95c15.14,0,24.18,10.62,25.99,24.86h-51.75c1.58-13.79,11.3-24.86,25.76-24.86Z" />
            <path
                fill="rgba(37,36,40,0.05)"
                d="M195.94,56.72c0-11.75-7.91-17.4-15.82-17.4-10.17,0-16.72,4.52-22.83,13.56h-.45c0-10.4-7.23-13.56-15.82-13.56-8.14,0-16.72,5.42-16.72,16.27v88.59c0,10.85,6.78,18.08,16.27,18.08s16.27-7.23,16.27-18.08v-49.95c0-12.88,9.94-17.18,19.66-21.7,9.72-4.52,19.44-5.2,19.44-15.82Z" />
            <path
                fill="rgba(37,36,40,0.05)"
                d="M249.5,37.97h0c-34.35,0-58.31,30.06-58.31,63.05s23.28,62.6,58.31,62.6,58.31-28.7,58.31-62.6c0-33-23.95-63.05-58.3-63.05Zm0,95.82c-17.63,0-25.76-17.18-25.76-32.77s7.91-33.22,25.76-33.22c17.85,0,25.76,17.63,25.76,33.22s-8.13,32.77-25.76,32.77Z" />
            <path
                fill="rgba(37,36,40,0.05)"
                d="M57.63,0H17.63C6.33,0,0,7.01,0,17.63v127.01c0,11.3,7.23,17.63,16.95,17.63s16.95-6.33,16.95-17.63v-37.06h25.09c30.96,0,56.5-20.57,56.5-53.56S90.85,0,57.63,0Zm-.68,77.74h-23.05V29.83h23.05c14.24,0,23.28,10.4,23.28,23.96s-9.04,23.96-23.28,23.96Z" />
            <path
                fill="rgba(37,36,40,0.05)"
                d="M978.35,37.97c-11.07,0-25.31,6.1-34.35,16.5-8.59-10.85-20.11-16.5-33.67-16.5-11.57-.02-22.6,4.91-30.28,13.56-1.13-7.68-6.55-12.2-14.92-12.2-9.49,0-16.27,7.23-16.27,18.08v86.78c0,10.85,6.78,18.08,16.27,18.08s16.27-7.23,16.27-18.08v-56.73c0-13.11,5.88-22.37,19.21-22.37,11.75,0,18.98,9.27,18.98,22.37v56.73c0,10.85,6.78,18.08,16.27,18.08s16.27-7.23,16.27-18.08v-56.73c0-13.11,7.23-22.37,19.21-22.37s18.98,9.27,18.98,22.37v56.73c0,10.85,6.78,18.08,16.27,18.08s16.27-7.23,16.27-18.08v-62.38c0-28.48-18.08-43.84-44.52-43.84Z" />
            <path
                fill="rgba(37,36,40,0.05)"
                d="M622.18,39.32c-7.9-.13-14.63,5.72-15.59,13.56-7.23-10.17-18.98-14.92-30.96-14.92-29.83,0-53.79,27.34-53.79,63.05s23.28,62.6,53.79,62.6c12.43,0,22.6-5.2,30.96-15.14,2.26,8.59,6.1,13.79,15.59,13.79,15.59,0,15.59-12.88,15.59-21.24V60.57c0-8.36,0-21.24-15.59-21.24Zm-42.03,94.47c-17.63,0-25.76-17.18-25.76-32.77s7.91-33.22,25.76-33.22,25.09,17.63,25.09,33.22-8.14,32.77-25.09,32.77Z" />
            <path
                fill="rgba(37,36,40,0.05)"
                d="M785.8,37.97c-11.07,0-25.31,6.1-34.35,16.5-8.59-10.85-20.11-16.5-33.67-16.5-11.57-.02-22.6,4.91-30.28,13.56-1.13-7.68-6.55-12.2-14.92-12.2-9.49,0-16.27,7.23-16.27,18.08v86.78c0,10.85,6.78,18.08,16.27,18.08s16.27-7.23,16.27-18.08v-56.73c0-13.11,5.88-22.37,19.21-22.37,11.75,0,18.98,9.27,18.98,22.37v56.73c0,10.85,6.78,18.08,16.27,18.08s16.27-7.23,16.27-18.08v-56.73c0-13.11,7.23-22.37,19.21-22.37s18.98,9.27,18.98,22.37v56.73c0,10.85,6.78,18.08,16.27,18.08s16.27-7.23,16.27-18.08v-62.38c0-28.48-18.08-43.84-44.52-43.84Z" />
            <path
                fill="rgba(37,36,40,0.05)"
                d="M416.51,39.32c-9.04,0-14.24,4.97-16.27,13.56-6.1-9.94-18.76-14.92-29.83-14.92-32.77,0-53.56,30.51-53.56,63.28s16.05,62.38,50.17,62.38c14.92,0,25.99-5.42,32.77-15.37h.45v7.68c0,16.5-11.75,25.76-27.57,25.76-18.76,0-30.28-10.17-40.68-10.17-6.33,0-13.11,8.14-13.11,14.24,0,17.85,37.97,24.41,51.3,24.41,37.06,0,62.6-19.66,62.6-58.76V57.4c0-10.85-6.78-18.08-16.27-18.08Zm-16.27,62.38c0,15.82-8.14,32.09-25.54,32.09s-25.31-15.82-25.31-33.22c0-15.14,8.36-32.77,25.31-32.77,17.86,0,25.54,18.08,25.54,33.9h0Z" />
            <path
                fill="rgba(37,36,40,0.05)"
                d="M506.69,39.32c-10.17,0-16.72,4.52-22.83,13.56h-.45c0-10.4-7.23-13.56-15.82-13.56-8.14,0-16.72,5.42-16.72,16.27v88.59c0,10.85,6.78,18.08,16.27,18.08s16.27-7.23,16.27-18.08v-49.95c0-12.88,9.94-17.18,19.66-21.7s19.44-5.2,19.44-15.82c0-11.75-7.91-17.4-15.82-17.4Z" />
        </g>
</svg>
